<mxfile host="app.diagrams.net" modified="2023-05-29T03:17:21.939Z" agent="Mozilla/5.0 (Macintosh; Intel Mac OS X 10_15_7) AppleWebKit/537.36 (KHTML, like Gecko) Chrome/112.0.0.0 Safari/537.36" version="21.1.7" etag="m5bjr4wKAYckx3ZQlxm7" type="github">
  <diagram name="Page-1" id="tdsSamAIJly84Pqii09j">
    <mxGraphModel>
      <root>
        <mxCell id="0" />
        <mxCell id="1" parent="0" />
      </root>
    </mxGraphModel>
  </diagram>
</mxfile>
